<svg xmlns="http://www.w3.org/2000/svg" data-name="Layer 7" viewBox="0 0 24 24"><path d="M15,4H9a7.008,7.008,0,0,0-7,7v4a4.994,4.994,0,0,0,5,5,3.649,3.649,0,0,0,3.1-1.821c0.131-.174.263-0.351,0.413-0.521A1.735,1.735,0,0,1,12,17a1.739,1.739,0,0,1,1.491.663c0.146,0.165.278,0.342,0.409,0.516A3.649,3.649,0,0,0,17,20a4.995,4.995,0,0,0,5-5V11A7.008,7.008,0,0,0,15,4Zm5,11a2.995,2.995,0,0,1-3,3,1.732,1.732,0,0,1-1.5-1.025c-0.163-.215-0.328-0.433-0.5-0.633A3.71,3.71,0,0,0,12,15a3.707,3.707,0,0,0-2.989,1.337c-0.181.2-.346,0.422-0.509,0.637A1.732,1.732,0,0,1,7,18a2.994,2.994,0,0,1-3-3V11A5.008,5.008,0,0,1,9,6h6a5.006,5.006,0,0,1,5,5v4Z"/><circle cx="16" cy="9.5" r="1"/><circle cx="16" cy="12.5" r="1"/><path d="M11,10H10V9A1,1,0,0,0,8,9v1H7a1,1,0,0,0,0,2H8v1a1,1,0,0,0,2,0V12h1A1,1,0,0,0,11,10Z"/></svg>