<svg xmlns="http://www.w3.org/2000/svg" width="32" height="32" viewBox="0 0 32 32"><g transform="translate(806.294 -1102.629)"><rect style="isolation:auto;mix-blend-mode:normal" width="22" height="20" x="-804.294" y="1109.629" fill="#e9eded" color="#000" overflow="visible"/><rect width="20" height="10" x="-803.294" y="1110.629" fill="#f05542" color="#000" overflow="visible" style="isolation:auto;mix-blend-mode:normal"/><path fill="#2b4255" style="line-height:normal;text-indent:0;text-align:start;text-decoration-line:none;text-decoration-style:solid;text-decoration-color:#000;text-transform:none;block-progression:tb;isolation:auto;mix-blend-mode:normal" d="m -804.79416,1106.6287 c -0.27613,0 -0.49997,0.2239 -0.5,0.5 l 0,23 c 3e-5,0.2761 0.22387,0.5 0.5,0.5 l 23,0 c 0.27613,0 0.49997,-0.2239 0.5,-0.5 l 0,-23 c -3e-5,-0.2761 -0.22387,-0.5 -0.5,-0.5 z m 0.5,3 22,0 0,20 -22,0 z" color="#000" font-family="sans-serif" font-weight="400" overflow="visible"/><circle cx="-803.794" cy="1108.129" r=".5" fill="#f8b74e" fill-opacity=".976" color="#000" overflow="visible" style="isolation:auto;mix-blend-mode:normal"/><circle style="isolation:auto;mix-blend-mode:normal" cx="-801.794" cy="1108.129" r=".5" fill="#25b39e" color="#000" overflow="visible"/><circle cx="-799.794" cy="1108.129" r=".5" fill="#f05542" color="#000" overflow="visible" style="isolation:auto;mix-blend-mode:normal"/><rect style="isolation:auto;mix-blend-mode:normal" width="4" height="7" x="-803.294" y="1121.629" fill="#4bbfeb" color="#000" overflow="visible"/><rect width="4" height="7" x="-787.294" y="1121.629" fill="#4bbfeb" color="#000" overflow="visible" style="isolation:auto;mix-blend-mode:normal"/><rect style="isolation:auto;mix-blend-mode:normal" width="10" height="7" x="-798.294" y="1121.629" fill="#4bbfeb" color="#000" overflow="visible"/><path fill="#4bbfeb" d="m -779.29416,1117.6287 0,-4 -12,0 0,4 z" color="#000" overflow="visible" style="isolation:auto;mix-blend-mode:normal"/><path fill="#e9eded" style="isolation:auto;mix-blend-mode:normal" d="M-791.29416 1117.6287l0-4-4 2zM-778.29416 1117.6287l1.5 0c.831 0 1.5-.669 1.5-1.5l0-1c0-.831-.669-1.5-1.5-1.5l-1.5 0z" color="#000" overflow="visible"/><path fill="#34485c" d="M-794.29416 1116.1287l-1-.5 1-.5 0 1zM-778.29416 1117.6287l0-4-1 0 0 4z" color="#000" overflow="visible" style="isolation:auto;mix-blend-mode:normal"/></g></svg>