<svg xmlns="http://www.w3.org/2000/svg" width="655.359" height="655.359" fill-rule="evenodd" clip-rule="evenodd" image-rendering="optimizeQuality" shape-rendering="geometricPrecision" text-rendering="geometricPrecision" viewBox="0 0 6.827 6.827"><rect width="6.827" height="6.827" fill="#f44336" rx="1.456" ry="1.456"/><path fill="#fff" d="M5.41333 2.61121c0,-0.00144488 -4.33071e-005,-0.00287795 -5.51181e-005,-0.00432283l0 -0.427339c0,-0.0916693 -0.0749961,-0.166665 -0.166665,-0.166665l-0.541126 0c-0.00288583,0 -0.00575591,7.48031e-005 -0.0086063,0.000220472l-2.57576 0 -0.110098 0 -0.431028 0c-0.0916693,0 -0.166665,0.0749961 -0.166665,0.166665l0 0.431441 0 1.60372 0 0.432193c0,0.0916693 0.0749961,0.166665 0.166665,0.166665l0.541126 0c0.00535827,0 0.0106575,-0.000267717 0.0158858,-0.000767717l2.55504 0c0.00443307,0.000358268 0.00891339,0.000547244 0.0134331,0.000547244l0.541126 0c0.0916693,0 0.166665,-0.0749961 0.166665,-0.166665l0 -1.01514 5.51181e-005 -1.02055zm-2.40011 1.47843l0 -1.50637 1.14238 0.75326 -1.14238 0.753106z"/></svg>